<svg width="16" height="16" viewBox="0 0 16 16" fill="none" xmlns="http://www.w3.org/2000/svg">
<path fill-rule="evenodd" clip-rule="evenodd" d="M12.9349 4.89144L12.9356 4.89211C13.4456 5.40278 13.4663 6.21478 12.9809 6.70144L6.98294 12.6994C6.76627 12.9161 6.47894 13.0501 6.17361 13.0781L3.39361 13.3308C3.37361 13.3328 3.35361 13.3334 3.33294 13.3334C3.15761 13.3334 2.98761 13.2641 2.86161 13.1381C2.72161 12.9981 2.65161 12.8034 2.66894 12.6068L2.92161 9.82678C2.94961 9.52211 3.08427 9.23411 3.30161 9.01744L9.29894 3.02011C9.76694 2.55011 10.6156 2.57344 11.1096 3.06611L12.9349 4.89144ZM10.6787 7.11936L8.882 5.32269L10.1807 4.02336L11.9767 5.81936L10.6787 7.11936ZM6.05287 11.7501L4.0682 11.9307L4.2442 9.96008L7.98887 6.21541L9.7862 8.01275L6.05287 11.7501Z" fill="#0B0B0B"/>
<path fill-rule="evenodd" clip-rule="evenodd" d="M12.9349 4.89144L12.9356 4.89211C13.4456 5.40278 13.4663 6.21478 12.9809 6.70144L6.98294 12.6994C6.76627 12.9161 6.47894 13.0501 6.17361 13.0781L3.39361 13.3308C3.37361 13.3328 3.35361 13.3334 3.33294 13.3334C3.15761 13.3334 2.98761 13.2641 2.86161 13.1381C2.72161 12.9981 2.65161 12.8034 2.66894 12.6068L2.92161 9.82678C2.94961 9.52211 3.08427 9.23411 3.30161 9.01744L9.29894 3.02011C9.76694 2.55011 10.6156 2.57344 11.1096 3.06611L12.9349 4.89144ZM10.6787 7.11936L8.882 5.32269L10.1807 4.02336L11.9767 5.81936L10.6787 7.11936ZM6.05287 11.7501L4.0682 11.9307L4.2442 9.96008L7.98887 6.21541L9.7862 8.01275L6.05287 11.7501Z" fill="white"/>
</svg>
