<svg width="14" height="16" viewBox="0 0 14 16" fill="none" xmlns="http://www.w3.org/2000/svg">
<path fill-rule="evenodd" clip-rule="evenodd" d="M8.875 6.87538C8.875 5.83943 8.03557 5 7.00038 5C5.96443 5 5.125 5.83943 5.125 6.87538C5.125 7.91057 5.96443 8.75 7.00038 8.75C8.03557 8.75 8.875 7.91057 8.875 6.87538Z" stroke="url(#paint0_linear_4062_12053)" stroke-linecap="round" stroke-linejoin="round"/>
<path fill-rule="evenodd" clip-rule="evenodd" d="M6.99963 14.75C6.10078 14.75 1.375 10.9238 1.375 6.92247C1.375 3.78998 3.89283 1.25 6.99963 1.25C10.1064 1.25 12.625 3.78998 12.625 6.92247C12.625 10.9238 7.89849 14.75 6.99963 14.75Z" stroke="url(#paint1_linear_4062_12053)" stroke-linecap="round" stroke-linejoin="round"/>
<defs>
<linearGradient id="paint0_linear_4062_12053" x1="6.17763" y1="2.75915" x2="11.6322" y2="5.7937" gradientUnits="userSpaceOnUse">
<stop stop-color="#AA00FF"/>
<stop offset="1" stop-color="#00E0FF"/>
</linearGradient>
<linearGradient id="paint1_linear_4062_12053" x1="4.5329" y1="-6.81708" x2="22.1704" y2="1.35983" gradientUnits="userSpaceOnUse">
<stop stop-color="#AA00FF"/>
<stop offset="1" stop-color="#00E0FF"/>
</linearGradient>
</defs>
</svg>
