<svg width="24" height="24" viewBox="0 0 24 24" fill="none" xmlns="http://www.w3.org/2000/svg">
<path d="M24 12C24 18.627 18.627 24 12 24C5.37295 24 0 18.627 0 12C0 5.37295 5.37295 0 12 0C18.6284 0 24 5.37295 24 12Z" fill="#2081E2"/>
<path d="M5.92047 12.4032L5.97223 12.3218L9.09391 7.43835C9.13954 7.36685 9.24679 7.37424 9.28131 7.45191C9.80283 8.62068 10.2528 10.0743 10.042 10.9792C9.95201 11.3515 9.70543 11.8558 9.42802 12.3218C9.39228 12.3896 9.35283 12.4562 9.3109 12.5203C9.29117 12.5499 9.25788 12.5672 9.22212 12.5672H6.01169C5.92539 12.5672 5.87484 12.4735 5.92047 12.4032Z" fill="white"/>
<path d="M19.8347 13.3106V14.0836C19.8347 14.128 19.8076 14.1675 19.7681 14.1847C19.5265 14.2883 18.6992 14.668 18.3552 15.1464C17.4774 16.3682 16.8067 18.1152 15.3075 18.1152H9.05308C6.83637 18.1152 5.04004 16.3127 5.04004 14.0886V14.0171C5.04004 13.9579 5.08811 13.9098 5.14729 13.9098H8.63392C8.70294 13.9098 8.75349 13.9739 8.74734 14.0417C8.72267 14.2686 8.7646 14.5004 8.87186 14.7112C9.07898 15.1316 9.50802 15.3942 9.97158 15.3942H11.6976V14.0467H9.99131C9.90378 14.0467 9.85202 13.9455 9.90256 13.8741C9.92104 13.8457 9.94202 13.8161 9.96419 13.7828C10.1257 13.5535 10.3563 13.1972 10.5856 12.7916C10.7422 12.5179 10.8938 12.2257 11.0158 11.9323C11.0405 11.8792 11.0602 11.825 11.08 11.772C11.1132 11.6783 11.1478 11.5907 11.1724 11.5032C11.1971 11.4292 11.2168 11.3516 11.2365 11.2788C11.2945 11.0298 11.3191 10.7659 11.3191 10.4922C11.3191 10.385 11.3142 10.2728 11.3044 10.1655C11.2994 10.0484 11.2846 9.93126 11.2698 9.81414C11.26 9.71058 11.2415 9.60824 11.2217 9.50099C11.1971 9.34441 11.1626 9.18908 11.1231 9.03248L11.1095 8.97332C11.08 8.86604 11.0553 8.76373 11.0208 8.65648C10.9234 8.31988 10.8112 7.99194 10.6928 7.68496C10.6497 7.56289 10.6004 7.44577 10.551 7.32865C10.4783 7.15235 10.4043 6.99208 10.3365 6.84042C10.302 6.77137 10.2724 6.70849 10.2428 6.64439C10.2095 6.57164 10.175 6.4989 10.1405 6.42988C10.1158 6.37686 10.0875 6.32754 10.0678 6.27822L9.85694 5.88863C9.82734 5.83561 9.87666 5.77273 9.9346 5.78876L11.2538 6.14629H11.2575C11.26 6.14629 11.2612 6.14754 11.2624 6.14754L11.4363 6.19561L11.6274 6.24988L11.6976 6.26958V5.48548C11.6976 5.10697 12.0009 4.79999 12.3757 4.79999C12.5631 4.79999 12.7333 4.87643 12.8553 5.00094C12.9774 5.12548 13.0538 5.29561 13.0538 5.48548V6.64933L13.1944 6.68876C13.2055 6.69248 13.2166 6.6974 13.2264 6.7048C13.261 6.73069 13.3102 6.7689 13.3731 6.81577C13.4224 6.8552 13.4755 6.9033 13.5396 6.95262C13.6666 7.05493 13.8182 7.18686 13.9846 7.33852C14.029 7.37672 14.0722 7.41618 14.1116 7.45564C14.3262 7.65536 14.5666 7.8896 14.7959 8.14852C14.86 8.22126 14.9229 8.29523 14.987 8.37289C15.0511 8.4518 15.1189 8.52947 15.1781 8.60716C15.2558 8.71072 15.3396 8.81797 15.4123 8.93017C15.4468 8.98319 15.4863 9.03743 15.5196 9.09044C15.6133 9.23221 15.6959 9.37895 15.7748 9.52566C15.8081 9.59346 15.8426 9.66743 15.8722 9.74017C15.9597 9.9362 16.0288 10.1359 16.0732 10.3357C16.0867 10.3788 16.0966 10.4257 16.1015 10.4676V10.4775C16.1163 10.5366 16.1212 10.5995 16.1262 10.6636C16.1459 10.8683 16.136 11.0729 16.0917 11.2788C16.0732 11.3664 16.0485 11.4489 16.0189 11.5365C15.9893 11.6203 15.9597 11.7079 15.9215 11.7905C15.8476 11.9618 15.76 12.1332 15.6564 12.2935C15.6232 12.3527 15.5837 12.4155 15.5442 12.4747C15.5011 12.5376 15.4567 12.5968 15.4173 12.6547C15.363 12.7287 15.3051 12.8064 15.2459 12.8754C15.1929 12.9482 15.1386 13.0209 15.0795 13.085C14.9968 13.1824 14.9179 13.2749 14.8353 13.3636C14.786 13.4216 14.733 13.4808 14.6788 13.5338C14.6258 13.5929 14.5715 13.646 14.5222 13.6953C14.4396 13.7779 14.3705 13.842 14.3126 13.895L14.177 14.0195C14.1573 14.0368 14.1314 14.0467 14.1042 14.0467H13.0538V15.3942H14.3755C14.6714 15.3942 14.9525 15.2894 15.1793 15.0971C15.257 15.0293 15.596 14.7358 15.9967 14.2932C16.0103 14.2784 16.0276 14.2673 16.0473 14.2624L19.6978 13.2071C19.7657 13.1873 19.8347 13.2391 19.8347 13.3106Z" fill="white"/>
</svg>
