<svg width="18" height="18" viewBox="0 0 18 18" fill="none" xmlns="http://www.w3.org/2000/svg">
<path d="M7.35427 9.07502C7.14067 9.65122 6.77701 10.1602 6.30055 10.549C5.81035 10.9489 5.21964 11.2062 4.59309 11.2927C3.96654 11.3791 3.3283 11.2914 2.74823 11.0391C2.16817 10.7868 1.66865 10.3797 1.30434 9.86225C0.940028 9.34484 0.724974 8.7371 0.682708 8.10556C0.640441 7.47402 0.772592 6.843 1.0647 6.28159C1.3568 5.72018 1.79761 5.25001 2.33887 4.92255C2.88009 4.59511 3.5009 4.42299 4.13333 4.42502M7.35427 9.07502L10.8777 4.50002V4.42502L10.8776 4.42502L4.13333 4.42502M7.35427 9.07502H7.65678H7.35427ZM4.13333 4.42502C4.13337 4.42502 4.13341 4.42502 4.13345 4.42502L4.13321 4.50002V4.42502H4.13333ZM10.8777 5.32502L10.878 5.32502C11.355 5.32304 11.823 5.45511 12.2287 5.70621C12.6344 5.9573 12.9615 6.31733 13.1728 6.74533C13.3841 7.17334 13.4711 7.65212 13.424 8.12719C13.3768 8.60226 13.1973 9.05453 12.906 9.43253C12.6146 9.81053 12.2231 10.0991 11.776 10.2653C11.3288 10.4316 10.8441 10.4689 10.3768 10.373C9.90952 10.2771 9.47853 10.0519 9.13286 9.72291C8.78719 9.39393 8.54073 8.97445 8.42154 8.51218L8.42152 8.5121C8.39653 8.41563 8.34024 8.33018 8.26147 8.26917C8.18271 8.20816 8.08592 8.17504 7.9863 8.17502H7.98628H7.02466H7.02465C6.92503 8.17504 6.82824 8.20816 6.74947 8.26917C6.67071 8.33018 6.61442 8.41563 6.58943 8.5121L6.58938 8.5123C6.44951 9.05844 6.13237 9.5426 5.68778 9.88879C5.24318 10.235 4.69631 10.4236 4.13302 10.425C3.45737 10.425 2.80939 10.1563 2.33162 9.67816C1.85379 9.19995 1.58534 8.55134 1.58534 7.87502C1.58534 7.1987 1.85379 6.55009 2.33162 6.07187C2.80944 5.59366 3.45749 5.32502 4.13321 5.32502L10.8777 5.32502Z" fill="url(#paint0_linear_4062_12046)" stroke="url(#paint1_linear_4062_12046)" stroke-width="0.15"/>
<path d="M14.3424 14.5278L14.3424 14.5278C15.2111 13.6504 15.675 12.3615 15.675 10.7929V2.62147V2.62143H15.75L14.3424 14.5278ZM14.3424 14.5278C13.9838 14.8905 13.5561 15.1792 13.0841 15.3772C12.6121 15.5752 12.1051 15.6786 11.5925 15.6815C10.3114 15.6814 8.97597 14.9724 8.74984 13.468H9.375C9.49412 13.468 9.6085 13.4211 9.69294 13.3375C9.77741 13.2538 9.825 13.1402 9.825 13.0215C9.825 12.9029 9.77741 12.7893 9.69294 12.7056C9.6085 12.622 9.49412 12.5751 9.375 12.5751H7.125C7.00588 12.5751 6.8915 12.622 6.80706 12.7056L6.85983 12.7589L6.80706 12.7056C6.72259 12.7893 6.675 12.9029 6.675 13.0215C6.675 13.1402 6.72259 13.2538 6.80706 13.3375L6.85976 13.2843M14.3424 14.5278L6.85976 13.2843M6.85976 13.2843L6.80706 13.3375C6.8915 13.4211 7.00588 13.468 7.125 13.468H7.84179C7.9188 14.3158 8.32264 15.1027 8.97067 15.6641L8.97065 15.6641M6.85976 13.2843L8.97065 15.6641M8.97065 15.6641L8.97224 15.6654M8.97065 15.6641L8.97224 15.6654M8.97224 15.6654C9.70842 16.2689 10.6383 16.5913 11.5935 16.5744M8.97224 15.6654L11.5928 16.4994M16.575 2.62147C16.575 2.56273 16.5634 2.50458 16.5407 2.45034C16.518 2.39611 16.4848 2.34688 16.443 2.30544C16.4012 2.26401 16.3516 2.23119 16.297 2.20882C16.2424 2.18646 16.184 2.17497 16.125 2.175L16.5 2.62143M16.575 2.62147L16.5 2.62143M16.575 2.62147V2.62143H16.5M16.575 2.62147V10.7929C16.575 12.7703 15.9331 14.2169 14.9859 15.1693C14.0396 16.1208 12.7935 16.5742 11.5935 16.5744M16.5 2.62143V10.7929C16.5 14.7137 13.9563 16.4994 11.5928 16.4994M11.5935 16.5744C11.5937 16.5744 11.5939 16.5744 11.5941 16.5744L11.5928 16.4994M11.5935 16.5744C11.5932 16.5744 11.593 16.5744 11.5928 16.5744V16.4994" fill="url(#paint2_linear_4062_12046)" stroke="url(#paint3_linear_4062_12046)" stroke-width="0.15"/>
<defs>
<linearGradient id="paint0_linear_4062_12046" x1="4.53948" y1="0.466462" x2="16.0291" y2="13.2506" gradientUnits="userSpaceOnUse">
<stop stop-color="#AA00FF"/>
<stop offset="1" stop-color="#00E0FF"/>
</linearGradient>
<linearGradient id="paint1_linear_4062_12046" x1="4.53948" y1="0.466462" x2="16.0291" y2="13.2506" gradientUnits="userSpaceOnUse">
<stop stop-color="#AA00FF"/>
<stop offset="1" stop-color="#00E0FF"/>
</linearGradient>
<linearGradient id="paint2_linear_4062_12046" x1="9.48684" y1="-6.26525" x2="25.7078" y2="-0.0907712" gradientUnits="userSpaceOnUse">
<stop stop-color="#AA00FF"/>
<stop offset="1" stop-color="#00E0FF"/>
</linearGradient>
<linearGradient id="paint3_linear_4062_12046" x1="9.48684" y1="-6.26525" x2="25.7078" y2="-0.0907712" gradientUnits="userSpaceOnUse">
<stop stop-color="#AA00FF"/>
<stop offset="1" stop-color="#00E0FF"/>
</linearGradient>
</defs>
</svg>
